<?xml version="1.0" standalone="no"?>
<!DOCTYPE svg PUBLIC "-//W3C//DTD SVG 20010904//EN"
 "http://www.w3.org/TR/2001/REC-SVG-20010904/DTD/svg10.dtd">
<svg version="1.0" xmlns="http://www.w3.org/2000/svg"
 width="400.000000pt" height="400.000000pt" viewBox="0 0 400.000000 400.000000"
 preserveAspectRatio="xMidYMid meet">

<g transform="translate(0.000000,400.000000) scale(0.100000,-0.100000)"
fill="#000000" stroke="none">
<path d="M3035 3561 c-157 -41 -258 -197 -238 -370 12 -111 58 -177 201 -291
40 -31 41 -34 26 -52 -13 -13 -15 -29 -11 -63 11 -78 19 -85 91 -85 73 0 80 5
94 73 8 40 7 51 -8 70 l-18 23 85 69 c97 79 127 120 149 208 29 112 2 239 -69
323 -42 50 -139 96 -211 100 -33 2 -74 0 -91 -5z m160 -101 c16 -46 19 -83 20
-215 0 -204 -20 -299 -73 -346 l-34 -30 -31 24 c-38 28 -61 89 -76 200 -20
144 -10 313 24 394 l14 34 68 -3 68 -3 20 -55z m-219 13 c-29 -96 -34 -295
-11 -423 7 -41 12 -76 11 -78 -2 -1 -24 17 -49 41 -67 62 -87 112 -87 223 0
77 4 97 26 142 33 67 126 147 110 95z m309 -15 c20 -17 48 -54 62 -82 22 -43
26 -65 26 -136 1 -107 -25 -173 -91 -230 -25 -22 -46 -39 -47 -38 -2 2 3 32
11 68 25 115 19 330 -12 433 -8 26 11 21 51 -15z m-125 -655 c-1 -51 -11 -63
-56 -63 -35 0 -44 4 -44 18 0 9 -3 27 -6 40 -6 21 -4 22 50 22 47 0 56 -3 56
-17z"/>
<path d="M2168 3406 c-105 -37 -158 -120 -158 -244 0 -102 23 -148 112 -222
55 -46 63 -57 50 -66 -21 -15 -11 -103 14 -121 21 -15 87 -17 114 -3 10 5 21
22 24 37 4 16 9 36 12 45 3 9 -3 25 -14 36 -18 18 -17 20 47 73 92 76 115 122
115 224 0 71 -4 88 -27 128 -61 104 -182 151 -289 113z m166 -52 c37 -20 65
-43 77 -66 9 -17 -1 -18 -166 -18 l-175 0 16 25 c18 27 69 62 112 75 35 12 95
4 136 -16z m104 -196 l-3 -63 -190 0 -190 0 -3 63 -3 62 196 0 196 0 -3 -62z
m-44 -139 c-24 -27 -139 -119 -149 -119 -8 0 -152 117 -160 130 -4 6 56 10
161 10 l167 0 -19 -21z m-104 -193 c0 -33 -13 -46 -46 -46 -19 0 -34 3 -34 8
0 4 -3 17 -6 30 -6 20 -3 22 40 22 33 0 46 -4 46 -14z"/>
<path d="M1480 2833 c0 -21 -7 -47 -15 -57 -8 -11 -15 -26 -15 -33 0 -8 -9
-35 -21 -60 -12 -27 -21 -66 -21 -95 1 -34 -4 -51 -14 -55 -16 -6 -19 -33 -4
-33 15 0 11 -42 -5 -64 -8 -11 -15 -29 -15 -41 0 -12 -7 -30 -15 -41 -8 -10
-15 -31 -15 -46 0 -18 -7 -29 -20 -33 -11 -3 -20 -12 -20 -20 0 -8 9 -17 20
-20 11 -3 20 -14 20 -23 0 -10 -9 -25 -20 -35 -15 -12 -20 -29 -20 -62 0 -28
-5 -47 -12 -49 -7 -2 -44 -11 -83 -20 -152 -37 -340 -156 -471 -299 -73 -80
-160 -212 -204 -309 -33 -73 -36 -77 -70 -80 -23 -2 -35 -8 -35 -18 0 -13 69
-15 548 -18 531 -2 548 -3 567 -22 18 -18 20 -34 20 -190 0 -153 -2 -171 -17
-177 -46 -16 -53 -33 -53 -123 0 -72 4 -92 19 -111 l19 -24 480 -2 c578 -3
532 -15 532 131 0 97 -7 113 -52 129 -16 6 -18 24 -18 182 0 149 2 175 15 175
8 0 15 7 15 15 0 13 69 15 538 17 469 3 537 5 537 18 0 11 -13 16 -45 18 -38
3 -62 16 -150 80 -132 96 -230 145 -347 174 l-93 23 0 33 c0 20 -8 39 -20 49
-17 15 -20 30 -20 100 0 45 5 85 10 88 18 11 11 74 -10 92 -21 18 -28 63 -10
63 6 0 10 7 10 15 0 8 -4 15 -10 15 -5 0 -10 15 -10 34 0 18 -6 39 -14 45 -8
7 -22 33 -30 58 -9 26 -23 54 -31 63 -22 24 -85 206 -85 245 0 28 -4 35 -20
35 -16 0 -20 -7 -20 -35 0 -39 -63 -221 -85 -245 -8 -9 -23 -39 -32 -66 -9
-27 -23 -55 -30 -62 -7 -7 -13 -27 -13 -43 0 -16 -4 -29 -10 -29 -5 0 -10 -7
-10 -15 0 -8 5 -15 10 -15 18 0 11 -45 -10 -63 -21 -18 -28 -81 -10 -92 6 -3
10 -44 10 -90 0 -68 -3 -86 -17 -93 -9 -6 -19 -28 -22 -53 -6 -40 -9 -44 -44
-52 -25 -6 -47 -6 -61 1 -21 9 -23 18 -28 119 -7 132 -33 211 -88 263 -33 32
-45 59 -118 280 -67 200 -82 256 -82 306 0 41 -5 65 -14 73 -21 18 -36 -16
-36 -81 0 -40 -20 -115 -81 -298 -45 -135 -86 -250 -90 -256 -7 -8 -24 -7 -64
5 l-55 16 0 58 c0 45 -4 61 -20 74 -11 10 -20 25 -20 35 0 9 9 20 20 23 11 3
20 12 20 20 0 8 -9 17 -20 20 -14 4 -20 15 -20 34 0 16 -7 34 -15 41 -8 7 -15
22 -15 34 0 11 -7 34 -15 50 -17 32 -20 66 -5 66 15 0 12 27 -4 33 -10 4 -15
21 -14 55 0 29 -9 68 -21 95 -12 25 -21 52 -21 60 0 7 -7 22 -15 33 -8 10 -15
36 -15 57 0 30 -4 37 -20 37 -16 0 -20 -7 -20 -37z m30 -98 c0 -8 -4 -15 -10
-15 -5 0 -10 7 -10 15 0 8 5 15 10 15 6 0 10 -7 10 -15z m30 -85 c6 -12 10
-40 8 -63 l-3 -42 -45 0 -45 0 -3 42 c-4 57 11 83 48 83 19 0 33 -7 40 -20z
m20 -175 c0 -12 -13 -15 -60 -15 -47 0 -60 3 -60 15 0 12 13 15 60 15 47 0 60
-3 60 -15z m511 -172 l48 -143 -104 0 -103 0 51 155 c29 86 54 150 56 143 2
-7 26 -77 52 -155z m657 57 l21 -60 -49 0 -49 0 21 60 c12 33 25 60 28 60 3 0
16 -27 28 -60z m-1144 34 c12 -31 5 -34 -84 -34 -89 0 -96 3 -84 34 9 23 159
23 168 0z m36 -99 c0 -12 -20 -15 -120 -15 -100 0 -120 3 -120 15 0 13 20 15
120 15 100 0 120 -2 120 -15z m1170 -57 c0 -7 3 -23 6 -35 6 -23 5 -23 -95
-23 -106 0 -107 1 -95 48 6 21 11 22 95 22 64 0 89 -3 89 -12z m-1170 -23 c0
-12 -20 -15 -120 -15 -100 0 -120 3 -120 15 0 13 20 15 120 15 100 0 120 -2
120 -15z m38 -114 c3 -39 1 -43 -15 -36 -10 4 -82 10 -160 13 l-143 5 0 27 c0
14 3 30 7 34 4 3 75 5 157 4 l151 -3 3 -44z m1182 14 c0 -13 -22 -15 -140 -15
-118 0 -140 2 -140 15 0 13 22 15 140 15 118 0 140 -2 140 -15z m-700 -20 c5
-14 13 -37 16 -50 l6 -25 -147 0 -147 0 6 25 c20 78 13 75 141 75 115 0 116 0
125 -25z m700 -60 c0 -13 -22 -15 -140 -15 -118 0 -140 2 -140 15 0 13 22 15
140 15 118 0 140 -2 140 -15z m-1165 -25 c43 -12 82 -23 86 -26 5 -2 -5 -33
-22 -67 -27 -58 -29 -70 -29 -178 l0 -116 -28 -6 c-33 -7 -52 -41 -52 -95 -1
-31 -6 -40 -33 -57 -27 -17 -33 -27 -35 -63 l-3 -42 -80 0 -79 0 0 43 c0 30 6
49 19 61 29 27 45 98 38 179 -6 80 -49 253 -66 270 -19 19 -32 -5 -58 -105
-44 -168 -41 -300 8 -344 13 -12 19 -31 19 -61 l0 -43 -100 0 -100 0 0 43 c0
30 6 49 19 61 49 44 52 176 8 344 -39 148 -54 148 -93 1 -45 -169 -42 -300 7
-345 13 -12 19 -31 19 -61 l0 -43 -289 0 -290 0 16 38 c110 265 360 510 603
593 155 52 359 60 515 19z m575 -102 l30 -63 -67 -5 c-60 -4 -68 -7 -68 -25 0
-18 8 -20 68 -23 l67 -3 0 -84 0 -85 -265 0 -265 0 0 85 0 84 68 3 c59 3 67 5
67 23 0 18 -8 20 -62 23 -41 2 -63 7 -63 15 0 7 11 36 25 65 l24 52 206 0 206
0 29 -62z m630 37 l0 -25 -180 0 -180 0 0 25 0 25 180 0 180 0 0 -25z m-20
-140 l0 -65 -160 0 -160 0 0 65 0 65 160 0 160 0 0 -65z m-1695 -98 c19 -99
15 -170 -10 -203 -15 -19 -15 -19 -30 0 -25 33 -29 104 -10 203 9 51 21 93 25
93 4 0 16 -42 25 -93z m240 0 c19 -99 15 -170 -10 -203 -15 -19 -15 -19 -30 0
-25 33 -29 104 -10 203 9 51 21 93 25 93 4 0 16 -42 25 -93z m1495 -39 l0 -23
-200 0 -200 0 0 22 0 23 200 0 200 0 0 -22z m15 -73 c108 -17 233 -56 295 -92
39 -22 167 -111 195 -135 5 -4 -203 -8 -463 -8 l-472 0 0 39 c0 41 -16 65 -50
76 -16 5 -20 15 -20 50 0 43 1 45 40 55 116 31 333 38 475 15z m-561 -31 c3
-9 6 -31 6 -50 l0 -34 -340 0 -340 0 0 50 0 50 334 0 c295 0 335 -2 340 -16z
m74 -187 l3 -47 -413 2 -413 3 -3 33 c-7 66 -33 62 415 60 l408 -3 3 -48z m2
-262 l0 -175 -70 0 -70 0 0 119 c0 121 -7 144 -35 121 -12 -10 -15 -39 -15
-126 l0 -114 -45 0 -44 0 -3 68 c-3 59 -5 67 -23 67 -18 0 -20 -8 -23 -67 l-3
-68 -84 0 -85 0 0 70 c0 62 -2 70 -19 70 -24 0 -31 -19 -31 -86 l0 -54 -45 0
-45 0 0 114 c0 87 -3 116 -15 126 -28 23 -35 0 -35 -121 l0 -119 -65 0 -65 0
0 83 c0 46 -3 125 -6 175 l-7 92 417 0 416 0 0 -175z m-760 -310 l0 -86 -67 3
-68 3 -3 83 -3 82 71 0 70 0 0 -85z m140 0 l0 -85 -50 0 -50 0 0 85 0 85 50 0
50 0 0 -85z m360 0 l0 -85 -155 0 -155 0 0 85 0 85 155 0 155 0 0 -85z m150 0
l0 -85 -50 0 -50 0 0 85 0 85 50 0 50 0 0 -85z m178 3 l-3 -83 -67 -3 -68 -3
0 86 0 85 70 0 71 0 -3 -82z"/>
<path d="M245 1350 c-13 -21 12 -31 71 -28 44 2 59 7 59 18 0 19 -119 28 -130
10z"/>
<path d="M3625 1350 c-13 -21 12 -31 71 -28 44 2 59 7 59 18 0 19 -119 28
-130 10z"/>
</g>
</svg>
